<svg version="1.1" xmlns="http://www.w3.org/2000/svg" viewBox="0 0 471.5 223" width="943" height="446">
  <!-- svg-source:excalidraw -->
  
  <defs>
    <style class="style-fonts">
      
    </style>
    
  </defs>
  <g stroke-linecap="round" transform="translate(10 117) rotate(0 20.5 20)"><path d="M24.68 0.25 C28.88 0.69, 34 3.86, 36.75 7.14 C39.49 10.42, 41.27 15.6, 41.14 19.93 C41.01 24.26, 38.87 29.72, 35.98 33.1 C33.08 36.48, 28.09 39.56, 23.76 40.2 C19.43 40.84, 13.76 39.32, 10 36.96 C6.23 34.61, 2.59 30.09, 1.15 26.07 C-0.3 22.06, -0.15 16.83, 1.34 12.88 C2.84 8.93, 6.2 4.42, 10.13 2.39 C14.05 0.36, 22.34 0.94, 24.89 0.71 C27.44 0.49, 25.42 0.67, 25.43 1.03 M15.88 -0.12 C19.87 -1.27, 26.21 0.14, 30.11 2.19 C34.01 4.24, 37.61 8.2, 39.26 12.18 C40.92 16.17, 41.27 22.08, 40.03 26.09 C38.79 30.11, 35.59 34, 31.81 36.26 C28.03 38.52, 21.67 40.06, 17.34 39.64 C13.01 39.22, 8.73 36.8, 5.83 33.75 C2.92 30.7, 0.23 25.53, -0.09 21.34 C-0.41 17.14, 1.29 12.08, 3.9 8.59 C6.5 5.1, 13.42 1.79, 15.53 0.38 C17.64 -1.02, 16.5 -0.27, 16.55 0.18" stroke="#1971c2" stroke-width="2" fill="none"></path></g><g stroke-linecap="round" transform="translate(140.5 48) rotate(0 20.5 20)"><path d="M23.59 -0.14 C27.75 0.1, 32.95 2.88, 35.86 6.1 C38.77 9.33, 40.88 14.76, 41.04 19.2 C41.2 23.63, 39.49 29.35, 36.8 32.72 C34.11 36.09, 29.22 38.65, 24.91 39.41 C20.6 40.18, 14.87 39.27, 10.96 37.3 C7.05 35.34, 3.2 31.56, 1.46 27.64 C-0.28 23.71, -0.82 17.83, 0.49 13.77 C1.81 9.7, 5.43 5.49, 9.33 3.24 C13.24 1, 21.27 0.61, 23.93 0.29 C26.58 -0.03, 25.35 0.94, 25.26 1.32 M20.34 0.01 C24.49 -0.23, 29.85 1.67, 33.22 4.39 C36.58 7.11, 39.63 12.21, 40.53 16.33 C41.43 20.45, 40.83 25.41, 38.62 29.1 C36.42 32.78, 31.35 36.77, 27.28 38.43 C23.22 40.09, 18.31 40.35, 14.24 39.05 C10.17 37.76, 5.24 34.25, 2.86 30.68 C0.49 27.1, -0.62 21.9, 0 17.6 C0.63 13.29, 3.18 7.89, 6.61 4.84 C10.05 1.79, 18.45 -0.08, 20.6 -0.72 C22.75 -1.35, 19.58 0.62, 19.51 1.03" stroke="#1971c2" stroke-width="2" fill="none"></path></g><g stroke-linecap="round" transform="translate(246.5 138) rotate(0 20.5 20)"><path d="M19.35 -0.45 C23.46 -0.92, 29.18 1.13, 32.71 3.82 C36.24 6.52, 39.5 11.57, 40.55 15.72 C41.6 19.88, 40.95 25.04, 38.98 28.74 C37.02 32.45, 32.82 36.19, 28.77 37.95 C24.72 39.71, 18.98 40.46, 14.68 39.3 C10.37 38.14, 5.4 34.55, 2.93 30.99 C0.46 27.43, -0.67 22.22, -0.15 17.97 C0.37 13.72, 2.6 8.4, 6.06 5.48 C9.52 2.56, 18.12 1.22, 20.62 0.42 C23.13 -0.38, 21.14 0.43, 21.1 0.69 M16.09 0.44 C20.05 -0.63, 26.09 0.64, 30.01 2.56 C33.94 4.48, 38.08 8.06, 39.64 11.95 C41.2 15.85, 40.67 21.75, 39.35 25.93 C38.04 30.12, 35.35 34.69, 31.72 37.05 C28.09 39.41, 22.02 40.61, 17.57 40.11 C13.13 39.6, 8.04 37.29, 5.06 34.04 C2.07 30.79, -0.32 25.12, -0.35 20.61 C-0.38 16.1, 2.21 10.25, 4.88 6.99 C7.55 3.74, 13.74 2.14, 15.66 1.07 C17.57 0.01, 16.21 0.45, 16.37 0.61" stroke="#1971c2" stroke-width="2" fill="none"></path></g><g stroke-linecap="round" transform="translate(363.5 63) rotate(0 20.5 20)"><path d="M17.17 0.2 C21.23 -0.57, 27.23 1.04, 31.03 3.2 C34.82 5.36, 38.48 9.27, 39.94 13.18 C41.39 17.08, 41.32 22.57, 39.76 26.63 C38.19 30.69, 34.47 35.36, 30.55 37.52 C26.64 39.68, 20.63 40.35, 16.27 39.58 C11.91 38.81, 7.17 36.21, 4.41 32.91 C1.65 29.61, -0.42 24.03, -0.3 19.79 C-0.17 15.54, 2.17 10.66, 5.15 7.43 C8.13 4.2, 15.29 1.58, 17.59 0.41 C19.9 -0.75, 18.92 0.13, 18.97 0.44 M20.47 0.24 C24.68 -0.09, 30.59 1.5, 33.86 4.19 C37.12 6.87, 39.26 12.03, 40.04 16.36 C40.82 20.68, 40.67 26.36, 38.56 30.15 C36.45 33.94, 31.58 37.56, 27.36 39.1 C23.13 40.65, 17.38 40.95, 13.21 39.41 C9.05 37.87, 4.42 33.78, 2.36 29.84 C0.31 25.9, 0.14 19.86, 0.88 15.76 C1.62 11.67, 3.52 7.95, 6.81 5.28 C10.1 2.62, 18.34 0.65, 20.62 -0.23 C22.91 -1.1, 20.54 -0.21, 20.52 0.05" stroke="#1971c2" stroke-width="2" fill="none"></path></g><g stroke-linecap="round"><g transform="translate(46.97189204608458 123.5037146998717) rotate(0 46.51405397695771 -23.751857349935847)"><path d="M-0.8 0.35 C14.56 -7.65, 76.24 -39.45, 91.85 -47.38 M0.99 -0.51 C16.72 -8.35, 78.78 -38.24, 93.95 -45.77" stroke="#1971c2" stroke-width="2" fill="none"></path></g><g transform="translate(46.97189204608458 123.5037146998717) rotate(0 46.51405397695771 -23.751857349935847)"><path d="M76.59 -27.78 C81.85 -34.57, 86.24 -37.85, 93.95 -45.77 M76.59 -27.78 C81.8 -33.57, 86.99 -39.62, 93.95 -45.77" stroke="#1971c2" stroke-width="2" fill="none"></path></g><g transform="translate(46.97189204608458 123.5037146998717) rotate(0 46.51405397695771 -23.751857349935847)"><path d="M69.08 -43.15 C76.49 -45.67, 82.94 -44.72, 93.95 -45.77 M69.08 -43.15 C76.87 -43.95, 84.5 -45, 93.95 -45.77" stroke="#1971c2" stroke-width="2" fill="none"></path></g></g><mask></mask><g stroke-linecap="round"><g transform="translate(178 80) rotate(0 35.5 31)"><path d="M-1.18 0.13 C10.76 10.45, 58.62 51.95, 70.82 62.31 M0.41 -0.85 C12.24 9.06, 57.88 49.58, 69.78 60.34" stroke="#1971c2" stroke-width="2" fill="none"></path></g><g transform="translate(178 80) rotate(0 35.5 31)"><path d="M46.57 51.06 C52.23 53.16, 57.95 57.37, 69.78 60.34 M46.57 51.06 C53.3 53.94, 61.77 56.04, 69.78 60.34" stroke="#1971c2" stroke-width="2" fill="none"></path></g><g transform="translate(178 80) rotate(0 35.5 31)"><path d="M57.97 38.31 C61 43.28, 64.06 50.46, 69.78 60.34 M57.97 38.31 C60.98 45.33, 65.77 51.54, 69.78 60.34" stroke="#1971c2" stroke-width="2" fill="none"></path></g></g><mask></mask><g stroke-linecap="round"><g transform="translate(285 148) rotate(0 40 -26)"><path d="M-0.18 0.31 C13.53 -8.34, 67.74 -43.03, 81.05 -51.72 M-1.73 -0.58 C12.01 -9.61, 67.24 -45.38, 80.65 -53.7" stroke="#1971c2" stroke-width="2" fill="none"></path></g><g transform="translate(285 148) rotate(0 40 -26)"><path d="M65.42 -33.87 C68.98 -36.11, 72.01 -42.43, 80.65 -53.7 M65.42 -33.87 C70.52 -41.02, 74.85 -46.73, 80.65 -53.7" stroke="#1971c2" stroke-width="2" fill="none"></path></g><g transform="translate(285 148) rotate(0 40 -26)"><path d="M56.24 -48.3 C61.67 -47.61, 66.55 -51.01, 80.65 -53.7 M56.24 -48.3 C64.09 -50.95, 71.27 -52.18, 80.65 -53.7" stroke="#1971c2" stroke-width="2" fill="none"></path></g></g><mask></mask><g stroke-linecap="round" transform="translate(124.5 173) rotate(0 20.5 20)"><path d="M19 0.16 C23.05 -0.33, 28.51 1.19, 32.03 3.72 C35.55 6.25, 39.01 11.16, 40.11 15.33 C41.21 19.49, 40.47 24.81, 38.64 28.7 C36.8 32.59, 33.14 36.88, 29.1 38.68 C25.06 40.48, 18.69 40.75, 14.42 39.5 C10.15 38.25, 5.93 34.76, 3.47 31.2 C1.02 27.63, -0.77 22.41, -0.31 18.13 C0.15 13.86, 2.82 8.59, 6.24 5.56 C9.67 2.53, 17.68 0.79, 20.23 -0.05 C22.79 -0.89, 21.63 0.25, 21.58 0.52 M18.96 0.34 C23.01 -0.11, 28.81 2.01, 32.32 4.46 C35.83 6.91, 38.84 11.11, 40.03 15.04 C41.22 18.98, 41.44 24.08, 39.48 28.05 C37.52 32.03, 32.38 37.08, 28.29 38.9 C24.19 40.73, 19.06 40.34, 14.92 39 C10.79 37.65, 5.95 34.46, 3.48 30.83 C1 27.2, -0.4 21.51, 0.08 17.23 C0.56 12.95, 3.17 7.89, 6.35 5.13 C9.54 2.37, 17.07 1.58, 19.18 0.69 C21.3 -0.21, 19.01 -0.46, 19.05 -0.26" stroke="#1e1e1e" stroke-width="2" fill="none"></path></g><g stroke-linecap="round" transform="translate(272.5 10) rotate(0 20.5 20)"><path d="M16.22 0.26 C20.24 -0.73, 26.42 0.65, 30.28 2.76 C34.14 4.87, 37.76 8.86, 39.39 12.91 C41.02 16.96, 41.56 22.96, 40.08 27.06 C38.59 31.15, 34.31 35.37, 30.49 37.48 C26.66 39.59, 21.44 40.43, 17.11 39.72 C12.79 39.01, 7.37 36.48, 4.52 33.22 C1.66 29.96, -0.02 24.47, 0.01 20.14 C0.03 15.82, 1.71 10.57, 4.65 7.26 C7.59 3.96, 15.43 1.51, 17.64 0.32 C19.86 -0.88, 17.94 -0.27, 17.94 0.08 M21.03 0.64 C25.17 0.47, 30.5 2.39, 33.89 5.04 C37.28 7.69, 40.8 12.17, 41.37 16.54 C41.94 20.91, 39.73 27.56, 37.32 31.27 C34.9 34.98, 30.96 37.66, 26.87 38.81 C22.78 39.96, 16.84 39.87, 12.75 38.18 C8.66 36.49, 4.37 32.49, 2.34 28.68 C0.3 24.87, -0.4 19.29, 0.54 15.32 C1.49 11.35, 4.58 7.52, 8.02 4.85 C11.46 2.18, 18.97 0.07, 21.2 -0.69 C23.43 -1.45, 21.5 -0.25, 21.41 0.29" stroke="#1e1e1e" stroke-width="2" fill="none"></path></g><g stroke-linecap="round" transform="translate(420.5 153) rotate(0 20.5 20)"><path d="M21.39 0.22 C25.6 0.2, 30.97 2.42, 34.25 5.39 C37.53 8.37, 40.61 13.76, 41.1 18.07 C41.58 22.38, 39.65 27.72, 37.19 31.23 C34.73 34.75, 30.56 37.92, 26.36 39.14 C22.16 40.37, 16.01 40.28, 11.98 38.57 C7.96 36.87, 4.1 32.8, 2.2 28.93 C0.29 25.06, -0.49 19.51, 0.54 15.37 C1.57 11.22, 4.84 6.69, 8.4 4.07 C11.96 1.45, 19.53 0.19, 21.9 -0.36 C24.28 -0.92, 22.6 0.35, 22.64 0.74 M22.15 -0.03 C26.46 -0.11, 32.67 2.1, 35.72 5.29 C38.76 8.48, 40.14 14.75, 40.4 19.11 C40.65 23.46, 39.71 28.11, 37.24 31.43 C34.77 34.75, 29.84 38.04, 25.56 39.03 C21.29 40.02, 15.53 39.24, 11.59 37.36 C7.65 35.49, 3.7 31.46, 1.91 27.77 C0.12 24.09, -0.3 19.41, 0.86 15.25 C2.02 11.08, 5.23 5.33, 8.87 2.79 C12.5 0.24, 20.5 0.26, 22.67 -0.03 C24.85 -0.33, 22.06 0.63, 21.93 1.01" stroke="#1e1e1e" stroke-width="2" fill="none"></path></g><g stroke-linecap="round"><g transform="translate(49.9999049783994 147.99995312267703) rotate(0 37.5000475108003 18.500023438661486)"><path d="M0 0 C14.91 7.84, 32.75 17.3, 75 37" stroke="#1e1e1e" stroke-width="2.5" fill="none" stroke-dasharray="1.5 8"></path></g></g><mask></mask><g stroke-linecap="round"><g transform="translate(166 187) rotate(0 40 -11)"><path d="M0 0 C24.94 -6.21, 50.67 -14.24, 80 -22" stroke="#1e1e1e" stroke-width="2.5" fill="none" stroke-dasharray="1.5 8"></path></g></g><mask></mask><g stroke-linecap="round"><g transform="translate(184 60) rotate(0 44.5 -12.5)"><path d="M0 0 C24.12 -7.58, 51.43 -12.8, 89 -25" stroke="#1e1e1e" stroke-width="2.5" fill="none" stroke-dasharray="1.5 8"></path></g></g><mask></mask><g stroke-linecap="round"><g transform="translate(312 42) rotate(0 28 14.5)"><path d="M0 0 C19.68 11.52, 35.83 20.7, 56 29" stroke="#1e1e1e" stroke-width="2.5" fill="none" stroke-dasharray="1.5 8"></path></g></g><mask></mask><g stroke-linecap="round"><g transform="translate(290 162) rotate(0 64.5 7)"><path d="M0 0 C35.84 4.06, 75.06 7.04, 129 14" stroke="#1e1e1e" stroke-width="2.5" fill="none" stroke-dasharray="1.5 8"></path></g></g><mask></mask></svg>